# xmcd
#
# Track frame offsets:
# 150
# 23024
# 37830
# 58749
# 83198
# 103867
# 123456
# 141605
#
# Disc length: 2244 seconds
#
#
# Revision: 0
# Processed by: cddbd v1.4PL0 Copyright (c) Steve Scherf et al.
# Submitted via: FreeRIP 2.40 
#
DISCID=6b08c208
DTITLE=Driverdown - Driverdown - Mix cd 2
DYEAR=1900
DGENRE=Acoustic
TTITLE0=Drown Them Out Instead
TTITLE1=Suddenly Secret
TTITLE2=Internal
TTITLE3=Glow
TTITLE4=Two Four Ten
TTITLE5=All These Things
TTITLE6=Switch
TTITLE7=Everything I Had to Lose
EXTD=
EXTT0=
EXTT1=
EXTT2=
EXTT3=
EXTT4=
EXTT5=
EXTT6=
EXTT7=
PLAYORDER=
